<?xml version="1.0" encoding="UTF-8" standalone="no"?>
<!-- Created with Inkscape (http://www.inkscape.org/) -->

<svg
   version="1.1"
   id="svg9"
   width="955.35242"
   height="1130.8146"
   viewBox="0 0 955.35242 1130.8146"
   sodipodi:docname="phosa.svg"
   inkscape:version="1.1.2 (b8e25be833, 2022-02-05)"
   xmlns:inkscape="http://www.inkscape.org/namespaces/inkscape"
   xmlns:sodipodi="http://sodipodi.sourceforge.net/DTD/sodipodi-0.dtd"
   xmlns="http://www.w3.org/2000/svg"
   xmlns:svg="http://www.w3.org/2000/svg">
  <defs
     id="defs13">
    <inkscape:path-effect
       effect="bspline"
       id="path-effect410"
       is_visible="true"
       lpeversion="1"
       weight="33.333333"
       steps="2"
       helper_size="0"
       apply_no_weight="true"
       apply_with_weight="true"
       only_selected="false" />
    <inkscape:path-effect
       effect="bspline"
       id="path-effect263"
       is_visible="true"
       lpeversion="1"
       weight="33.333333"
       steps="2"
       helper_size="0"
       apply_no_weight="true"
       apply_with_weight="true"
       only_selected="false" />
    <inkscape:path-effect
       effect="bspline"
       id="path-effect255"
       is_visible="true"
       lpeversion="1"
       weight="33.333333"
       steps="2"
       helper_size="0"
       apply_no_weight="true"
       apply_with_weight="true"
       only_selected="false" />
    <inkscape:path-effect
       effect="bspline"
       id="path-effect134"
       is_visible="true"
       lpeversion="1"
       weight="33.333333"
       steps="2"
       helper_size="0"
       apply_no_weight="true"
       apply_with_weight="true"
       only_selected="false" />
    <inkscape:path-effect
       effect="bspline"
       id="path-effect263-5"
       is_visible="true"
       lpeversion="1"
       weight="33.333333"
       steps="2"
       helper_size="0"
       apply_no_weight="true"
       apply_with_weight="true"
       only_selected="false" />
  </defs>
  <sodipodi:namedview
     id="namedview11"
     pagecolor="#505050"
     bordercolor="#eeeeee"
     borderopacity="1"
     inkscape:pageshadow="0"
     inkscape:pageopacity="0"
     inkscape:pagecheckerboard="0"
     showgrid="false"
     fit-margin-top="0"
     fit-margin-left="0"
     fit-margin-right="0"
     fit-margin-bottom="0"
     inkscape:zoom="0.4675"
     inkscape:cx="1282.3529"
     inkscape:cy="536.8984"
     inkscape:window-width="1920"
     inkscape:window-height="986"
     inkscape:window-x="-11"
     inkscape:window-y="-11"
     inkscape:window-maximized="1"
     inkscape:current-layer="g15" />
  <g
     inkscape:groupmode="layer"
     inkscape:label="Image"
     id="g15"
     transform="translate(-116.35077,-206.84892)">
    <g
       id="g3097"
       transform="matrix(12.226368,0,0,11.813121,-7427.19,-5015.0323)">
      <path
         style="fill:none;stroke:#000000;stroke-width:1px;stroke-linecap:butt;stroke-linejoin:miter;stroke-opacity:1"
         d="m 617.48951,457.91781 c 0,21.30244 0,42.60387 5.92476,57.16191 5.92477,14.55804 17.77266,22.37262 30.31373,22.183 12.54106,-0.18961 25.77543,-8.38231 32.7077,-22.94003 6.93227,-14.55772 7.56248,-35.4806 8.19273,-56.40488"
         id="path132"
         inkscape:path-effect="#path-effect134"
         inkscape:original-d="m 617.48951,457.91781 c 10e-4,21.30244 10e-4,42.60387 0,63.90431 11.84937,7.81588 23.69727,15.63045 35.5444,23.44418 13.23588,-8.19202 26.47024,-16.38472 39.70386,-24.57858 0.63123,-20.92272 1.26144,-41.8456 1.89066,-62.76991" />
      <path
         style="fill:none;stroke:#000000;stroke-width:1px;stroke-linecap:butt;stroke-linejoin:miter;stroke-opacity:1"
         d="m 617.48951,457.91781 c 12.35258,-7.68885 24.70489,-15.37753 37.56197,-15.37703 12.85707,5e-4 26.21747,7.68903 39.57695,15.37703"
         id="path253"
         inkscape:path-effect="#path-effect255"
         inkscape:original-d="m 617.48951,457.91781 c 12.35331,-7.68768 24.70562,-15.37636 37.05693,-23.06605 13.36193,7.68984 26.72233,15.37837 40.08199,23.06605" />
      <path
         style="fill:none;stroke:#000000;stroke-width:1.14612px;stroke-linecap:butt;stroke-linejoin:miter;stroke-opacity:1"
         d="m 638.22383,463.45668 c -2.20615,0.24808 -4.47494,7.53323 -4.53752,14.07364 -0.0626,6.54042 2.08012,12.33531 4.28549,12.08657 2.20536,-0.24873 4.47411,-6.54033 4.5375,-13.08016 0.0634,-6.53982 -2.07932,-13.32812 -4.28547,-13.08005 z"
         id="path261"
         inkscape:path-effect="#path-effect263"
         inkscape:original-d="m 638.28676,456.4187 c -2.26779,7.28646 -4.53658,14.57161 -6.80637,21.85543 2.14379,5.79644 4.28649,11.59133 6.42824,17.38502 2.26984,-6.29052 4.53858,-12.58212 6.80638,-18.87515 -2.1418,-6.78726 -4.2845,-13.57556 -6.42825,-20.3653 z" />
      <path
         style="fill:none;stroke:#000000;stroke-width:1.14612px;stroke-linecap:butt;stroke-linejoin:miter;stroke-opacity:1"
         d="m 670.55399,463.36577 c -2.20615,0.24808 -4.47494,7.53323 -4.53752,14.07364 -0.0626,6.54042 2.08012,12.33531 4.28549,12.08657 2.20536,-0.24873 4.47411,-6.54033 4.5375,-13.08016 0.0634,-6.53982 -2.07932,-13.32812 -4.28547,-13.08005 z"
         id="path261-2"
         inkscape:path-effect="#path-effect263-5"
         inkscape:original-d="m 670.61692,456.32779 c -2.26779,7.28646 -4.53658,14.57161 -6.80637,21.85543 2.14379,5.79644 4.28649,11.59133 6.42824,17.38502 2.26984,-6.29052 4.53858,-12.58212 6.80638,-18.87515 -2.1418,-6.78726 -4.2845,-13.57556 -6.42825,-20.3653 z" />
      <path
         style="fill:none;stroke:#000000;stroke-width:1px;stroke-linecap:butt;stroke-linejoin:miter;stroke-opacity:1"
         d="m 625.80954,504.87001 c -6e-5,2.20589 14.74678,15.06211 29.24163,15.18767 14.49486,0.12555 28.73724,-12.47833 28.73737,-14.68421 1.3e-4,-2.20588 -14.24226,5.98665 -28.73718,5.86103 -14.49492,-0.12561 -29.24176,-8.57039 -29.24182,-6.36449 z"
         id="path408"
         inkscape:path-effect="#path-effect410"
         inkscape:original-d="m 611.06127,494.21848 c 14.74815,12.85749 29.49498,25.71372 44.24143,38.56947 14.24426,-12.60366 28.48665,-25.20754 42.72892,-37.81321 -14.24227,8.19404 -28.48466,16.38656 -42.72892,24.57859 -14.74644,-8.44412 -29.49328,-16.8889 -44.24143,-25.33485 z"
         sodipodi:nodetypes="ccccc" />
      <ellipse
         style="fill:#000000;fill-opacity:1;stroke:none;stroke-width:37.9427;stroke-linecap:round;paint-order:markers stroke fill"
         id="path2257"
         cx="638.56952"
         cy="477.13904"
         rx="1.4037433"
         ry="5.080214" />
      <ellipse
         style="fill:#000000;fill-opacity:1;stroke:none;stroke-width:37.9427;stroke-linecap:round;paint-order:markers stroke fill"
         id="path2257-2"
         cx="669.78613"
         cy="476.87167"
         rx="1.4037433"
         ry="5.080214" />
      <path
         style="fill:#000000;fill-opacity:1;stroke:none;stroke-width:3.58683;stroke-linecap:round;paint-order:markers stroke fill"
         d="m 653.67617,519.45545 c -6.46163,-0.43113 -13.85991,-3.38634 -20.73052,-8.2807 -2.53045,-1.8026 -5.24474,-4.24579 -6.14889,-5.53474 l -0.40604,-0.57885 0.51238,0.0657 c 0.2818,0.0361 2.91587,0.87086 5.85348,1.85493 6.79441,2.27608 9.08339,2.93574 12.93079,3.72652 3.55744,0.73119 6.32043,1.0276 9.61533,1.03154 3.4184,0.004 6.14655,-0.28004 9.8606,-1.02692 3.558,-0.7155 6.00244,-1.4091 12.30739,-3.49216 4.12151,-1.36169 5.50586,-1.76142 5.639,-1.62828 0.12392,0.12392 -0.86769,1.31644 -2.05921,2.47644 -1.85432,1.80525 -4.00092,3.47266 -6.51031,5.057 -7.15457,4.51715 -14.52324,6.75259 -20.864,6.32952 z"
         id="path2560" />
      <path
         style="fill:#ffffff;fill-opacity:1;stroke:none;stroke-width:7.17367;stroke-linecap:round;paint-order:markers stroke fill"
         d="m 650.95269,536.56411 c -10.84213,-0.89343 -20.34796,-7.91504 -25.71665,-18.99598 -5.11695,-10.56132 -7.07703,-24.63588 -7.0829,-50.85955 l -0.002,-8.50877 3.92312,-2.39892 c 9.4301,-5.76633 15.00023,-8.56145 21.03359,-10.55473 4.98796,-1.64791 8.54221,-2.19027 13.23366,-2.0194 4.22323,0.15382 7.84263,0.88655 12.57384,2.54554 6.07806,2.13124 11.09854,4.57056 21.90005,10.64065 l 3.18252,1.78846 -0.11632,4.25399 c -0.9048,33.09053 -4.17316,48.1656 -12.93251,59.65032 -1.21244,1.58967 -4.76664,5.20918 -6.45629,6.57492 -4.33804,3.50642 -9.56734,6.09354 -14.55808,7.20238 -1.74084,0.38678 -6.65444,0.9686 -7.1647,0.84837 -0.0629,-0.0148 -0.88073,-0.0901 -1.81743,-0.16728 z m 6.99694,-16.06938 c 8.09364,-0.90318 17.45885,-5.41559 23.7065,-11.42244 2.47545,-2.38004 3.26152,-3.93527 2.25995,-4.47129 -0.69478,-0.37184 -1.93769,-0.0802 -7.72159,1.8121 -13.10685,4.28802 -19.87583,5.08093 -29.03379,3.40099 -3.88003,-0.71176 -7.0548,-1.5933 -13.60059,-3.77647 -6.18763,-2.06372 -7.212,-2.32714 -7.80846,-2.00792 -1.73225,0.92707 1.59338,4.75987 7.71393,8.89034 8.46401,5.71194 17.13566,8.39472 24.48405,7.57469 z m -18.90794,-30.62394 c 2.25604,-1.39431 4.0625,-7.47513 4.06514,-13.68384 0.002,-5.54503 -1.45924,-11.13803 -3.34285,-12.79186 -2.03286,-1.78488 -4.28018,0.59509 -5.64598,5.97924 -1.99894,7.88005 -0.98335,17.32843 2.1687,20.17611 0.90702,0.81944 1.7827,0.92126 2.75499,0.32035 z m 31.91525,0.12187 c 1.29759,-0.54217 2.5313,-2.57777 3.41913,-5.64151 1.71664,-5.92374 1.3085,-14.32103 -0.92178,-18.96523 -1.55441,-3.23683 -3.51332,-3.55575 -5.1559,-0.8394 -2.29685,3.79831 -3.47996,11.78519 -2.60528,17.5876 0.57644,3.82394 1.99254,6.96273 3.50299,7.76435 0.78673,0.41753 0.96425,0.42703 1.76084,0.0942 z"
         id="path2870" />
      <path
         style="fill:#ffffff;fill-opacity:1;stroke:none;stroke-width:7.17367;stroke-linecap:round;paint-order:markers stroke fill"
         d="m 637.01948,488.4047 c -1.04142,-1.11129 -2.0018,-3.87909 -2.42327,-6.98383 -0.32725,-2.41074 -0.15112,-7.14768 0.36116,-9.71289 0.88188,-4.416 2.44395,-7.73103 3.54318,-7.51934 0.83936,0.16165 2.04866,2.81093 2.72596,5.97195 0.57834,2.69914 0.71111,7.60133 0.28017,10.34495 -0.58839,3.74609 -1.58664,6.52437 -2.80424,7.80463 -0.71341,0.75012 -1.05084,0.76908 -1.68296,0.0945 z m 2.28214,-6.80637 c 0.69517,-1.36603 0.96297,-4.48739 0.5849,-6.81724 -0.46474,-2.86389 -1.43547,-3.69819 -2.17022,-1.86521 -0.53846,1.34331 -0.76111,3.8535 -0.52806,5.95344 0.34315,3.09198 1.29993,4.32747 2.11338,2.72901 z"
         id="path2909" />
      <path
         style="fill:#ffffff;fill-opacity:1;stroke:none;stroke-width:7.17367;stroke-linecap:round;paint-order:markers stroke fill"
         d="m 669.53948,488.55743 c -0.25676,-0.20197 -0.73765,-0.91732 -1.06865,-1.58968 -2.02385,-4.11103 -2.30714,-11.3938 -0.68114,-17.51123 0.58331,-2.19458 1.81212,-4.80493 2.4625,-5.23108 0.45837,-0.30033 0.49665,-0.29256 1.01759,0.20653 0.71198,0.68212 1.43734,2.33236 1.99981,4.54968 1.2756,5.02855 1.12011,11.00836 -0.40548,15.59447 -0.74016,2.225 -1.34688,3.37724 -2.08336,3.95656 -0.61132,0.48086 -0.66018,0.48183 -1.24127,0.0247 z m 0.56344,-6.59861 c 0.50631,-0.32128 1.01116,-2.16513 1.11779,-4.08244 0.17887,-3.21642 -0.46018,-5.98819 -1.41174,-6.12323 -1.64829,-0.2339 -2.07242,8.26647 -0.4992,10.00486 0.36325,0.40139 0.4446,0.42198 0.79315,0.20081 z"
         id="path2948" />
    </g>
  </g>
</svg>
